<?xml version="1.0" encoding="UTF-8" standalone="no"?>
<!-- Created with Inkscape (http://www.inkscape.org/) -->

<svg
   width="13.229164mm"
   height="12.852375mm"
   viewBox="0 0 13.229164 12.852375"
   version="1.1"
   id="svg8004"
   xmlns="http://www.w3.org/2000/svg"
   xmlns:svg="http://www.w3.org/2000/svg">
  <defs
     id="defs8001" />
  <g
     id="layer1"
     transform="translate(-49.725076,-37.404605)">
    <g
       id="g10473">
      <path
         style="fill:#6cb150;fill-opacity:0.5;stroke:#50823a;stroke-width:0;stroke-dasharray:none;stroke-opacity:0.329412"
         id="path8177-9"
         d="m 49.727195,43.991996 a 6.6145391,6.4261456 0 0 1 6.442774,-6.585235 6.6145391,6.4261456 0 0 1 6.781949,6.255533 6.6145391,6.4261456 0 0 1 -6.435075,6.592337 6.6145391,6.4261456 0 0 1 -6.789254,-6.24805" />
      <path
         style="fill:#6cb150;fill-opacity:0.75;stroke:#64a04a;stroke-width:0;stroke-dasharray:none;stroke-opacity:0.670588"
         id="path8177-5"
         d="m 51.00369,43.960877 a 5.3376427,5.1856203 0 0 1 5.199036,-5.313999 5.3376427,5.1856203 0 0 1 5.472735,5.047944 5.3376427,5.1856203 0 0 1 -5.192823,5.319729 5.3376427,5.1856203 0 0 1 -5.47863,-5.041905" />
      <path
         style="fill:#6cb150;fill-opacity:1;stroke:#599242;stroke-width:0;stroke-dasharray:none;stroke-opacity:1"
         id="path8177"
         d="m 52.250001,43.930493 a 4.090939,3.9744248 0 0 1 3.984707,-4.072818 4.090939,3.9744248 0 0 1 4.194478,3.868905 4.090939,3.9744248 0 0 1 -3.979945,4.07721 4.090939,3.9744248 0 0 1 -4.198996,-3.864277" />
    </g>
  </g>
</svg>
